<?xml version="1.0" encoding="UTF-8"?>
<svg xmlns="http://www.w3.org/2000/svg" xmlns:xlink="http://www.w3.org/1999/xlink" width="500px" height="105px" viewBox="0 0 298 105" version="1.1">
<g id="surface1">
<path style=" stroke:none;fill-rule:nonzero;fill:rgb(75.294119%,14.901961%,82.745099%);fill-opacity:1;" d="M 67.429688 43.773438 C 69.816406 39.792969 73.273438 36.539062 77.402344 34.410156 L 77.402344 29.785156 L 82.222656 29.785156 L 72.414062 12.746094 L 62.609375 29.785156 L 67.429688 29.785156 Z M 67.429688 43.773438 "/>
<path style=" stroke:none;fill-rule:nonzero;fill:rgb(65.490198%,54.509807%,98.039216%);fill-opacity:1;" d="M 88.714844 35.171875 C 84.558594 35.171875 80.683594 36.367188 77.402344 38.433594 C 71.722656 42.015625 67.839844 48.199219 67.429688 55.304688 C 67.402344 55.71875 67.390625 56.140625 67.390625 56.558594 L 67.390625 56.75 C 67.210938 59.226562 66.285156 61.492188 64.832031 63.328125 C 62.628906 66.140625 59.203125 67.945312 55.367188 67.945312 C 48.714844 67.945312 43.304688 62.519531 43.304688 55.84375 L 43.304688 34.683594 L 33.332031 34.683594 L 33.332031 55.84375 C 33.332031 68.03125 43.214844 77.949219 55.367188 77.949219 C 59.800781 77.949219 63.933594 76.625 67.394531 74.359375 L 67.394531 95.039062 L 77.367188 95.039062 L 77.367188 74.660156 C 80.65625 76.742188 84.546875 77.949219 88.714844 77.949219 C 100.472656 77.949219 110.039062 68.355469 110.039062 56.558594 C 110.039062 44.765625 100.472656 35.171875 88.714844 35.171875 Z M 88.714844 67.945312 C 82.59375 67.945312 77.59375 63.0625 77.375 56.980469 C 77.375 56.976562 77.367188 56.976562 77.375 56.972656 C 77.394531 56.597656 77.402344 56.21875 77.402344 55.84375 L 77.402344 55.65625 C 77.863281 49.796875 82.757812 45.175781 88.710938 45.175781 C 94.972656 45.175781 100.0625 50.285156 100.0625 56.5625 C 100.0625 62.839844 94.972656 67.945312 88.710938 67.945312 Z M 88.714844 67.945312 "/>
<path style=" stroke:none;fill-rule:nonzero;fill:rgb(100%,100%,100%);fill-opacity:1;" d="M 114.992188 44.355469 C 113.929688 44.355469 113.066406 44.050781 112.410156 43.441406 C 111.75 42.832031 111.421875 42.070312 111.421875 41.15625 C 111.421875 40.140625 111.753906 39.328125 112.410156 38.71875 C 113.066406 38.109375 113.929688 37.804688 114.992188 37.804688 L 132.539062 37.804688 C 133.601562 37.804688 134.460938 38.109375 135.121094 38.71875 C 135.777344 39.328125 136.105469 40.140625 136.105469 41.15625 C 136.105469 42.070312 135.777344 42.832031 135.121094 43.441406 C 134.460938 44.050781 133.601562 44.355469 132.539062 44.355469 Z M 131.855469 77.953125 C 129.320312 77.953125 127.042969 77.304688 125.019531 76.007812 C 122.992188 74.714844 121.398438 72.949219 120.234375 70.714844 C 119.066406 68.480469 118.488281 65.964844 118.488281 63.171875 L 118.488281 26.835938 C 118.488281 25.71875 118.839844 24.804688 119.550781 24.09375 C 120.257812 23.382812 121.171875 23.027344 122.285156 23.027344 C 123.398438 23.027344 124.308594 23.382812 125.019531 24.09375 C 125.726562 24.804688 126.082031 25.71875 126.082031 26.835938 L 126.082031 63.171875 C 126.082031 65.203125 126.640625 66.90625 127.753906 68.277344 C 128.867188 69.648438 130.234375 70.332031 131.855469 70.332031 L 134.4375 70.332031 C 135.347656 70.332031 136.121094 70.6875 136.753906 71.398438 C 137.386719 72.109375 137.703125 73.023438 137.703125 74.140625 C 137.703125 75.257812 137.285156 76.175781 136.449219 76.886719 C 135.613281 77.597656 134.535156 77.953125 133.21875 77.953125 Z M 131.855469 77.953125 "/>
<path style=" stroke:none;fill-rule:nonzero;fill:rgb(100%,100%,100%);fill-opacity:1;" d="M 162.03125 78.253906 C 158.332031 78.253906 155.015625 77.328125 152.082031 75.476562 C 149.144531 73.621094 146.828125 71.109375 145.132812 67.933594 C 143.433594 64.757812 142.585938 61.164062 142.585938 57.152344 C 142.585938 53.140625 143.511719 49.535156 145.359375 46.335938 C 147.207031 43.136719 149.714844 40.609375 152.878906 38.757812 C 156.042969 36.902344 159.601562 35.976562 163.550781 35.976562 C 167.5 35.976562 171.042969 36.902344 174.183594 38.757812 C 177.320312 40.609375 179.816406 43.136719 181.664062 46.335938 C 183.511719 49.535156 184.4375 53.144531 184.4375 57.152344 L 181.476562 57.152344 C 181.476562 61.164062 180.625 64.757812 178.929688 67.933594 C 177.234375 71.109375 174.917969 73.621094 171.980469 75.476562 C 169.042969 77.328125 165.726562 78.253906 162.03125 78.253906 Z M 163.546875 71.398438 C 166.128906 71.398438 168.433594 70.777344 170.460938 69.535156 C 172.484375 68.289062 174.078125 66.589844 175.246094 64.429688 C 176.410156 62.273438 176.992188 59.847656 176.992188 57.15625 C 176.992188 54.460938 176.410156 51.960938 175.246094 49.804688 C 174.078125 47.644531 172.484375 45.945312 170.460938 44.699219 C 168.433594 43.453125 166.128906 42.832031 163.546875 42.832031 C 160.964844 42.832031 158.726562 43.457031 156.675781 44.699219 C 154.625 45.945312 153.003906 47.644531 151.8125 49.804688 C 150.625 51.960938 150.027344 54.410156 150.027344 57.15625 C 150.027344 59.898438 150.625 62.273438 151.8125 64.429688 C 153.003906 66.589844 154.625 68.289062 156.675781 69.535156 C 158.726562 70.777344 161.015625 71.398438 163.546875 71.398438 Z M 180.5625 78.027344 C 179.445312 78.027344 178.523438 77.660156 177.789062 76.921875 C 177.054688 76.1875 176.6875 75.257812 176.6875 74.140625 L 176.6875 62.484375 L 178.128906 54.410156 L 184.433594 57.152344 L 184.433594 74.140625 C 184.433594 75.257812 184.066406 76.1875 183.332031 76.921875 C 182.597656 77.65625 181.675781 78.027344 180.5625 78.027344 Z M 180.5625 78.027344 "/>
<path style=" stroke:none;fill-rule:nonzero;fill:rgb(100%,100%,100%);fill-opacity:1;" d="M 208.609375 78.253906 C 205.066406 78.253906 201.785156 77.710938 198.773438 76.617188 C 195.761719 75.527344 193.421875 74.140625 191.75 72.464844 C 190.988281 71.652344 190.671875 70.726562 190.800781 69.683594 C 190.925781 68.644531 191.417969 67.792969 192.28125 67.132812 C 193.292969 66.320312 194.292969 65.980469 195.28125 66.105469 C 196.269531 66.234375 197.117188 66.675781 197.824219 67.4375 C 198.6875 68.402344 200.066406 69.304688 201.964844 70.140625 C 203.863281 70.980469 205.976562 71.398438 208.304688 71.398438 C 211.242188 71.398438 213.484375 70.917969 215.027344 69.953125 C 216.570312 68.988281 217.367188 67.742188 217.417969 66.21875 C 217.46875 64.695312 216.746094 63.375 215.253906 62.257812 C 213.761719 61.140625 211.039062 60.226562 207.089844 59.515625 C 201.976562 58.5 198.265625 56.976562 195.964844 54.945312 C 193.660156 52.914062 192.507812 50.425781 192.507812 47.480469 C 192.507812 44.890625 193.269531 42.746094 194.789062 41.042969 C 196.304688 39.339844 198.253906 38.070312 200.636719 37.230469 C 203.015625 36.394531 205.496094 35.976562 208.078125 35.976562 C 211.421875 35.976562 214.382812 36.507812 216.964844 37.574219 C 219.546875 38.640625 221.597656 40.113281 223.117188 41.992188 C 223.824219 42.804688 224.152344 43.65625 224.101562 44.546875 C 224.050781 45.433594 223.621094 46.183594 222.8125 46.792969 C 222 47.351562 221.039062 47.53125 219.925781 47.328125 C 218.8125 47.125 217.875 46.667969 217.117188 45.957031 C 215.851562 44.738281 214.480469 43.898438 213.015625 43.441406 C 211.546875 42.984375 209.847656 42.757812 207.925781 42.757812 C 205.699219 42.757812 203.8125 43.136719 202.269531 43.898438 C 200.722656 44.660156 199.953125 45.777344 199.953125 47.25 C 199.953125 48.164062 200.191406 48.992188 200.671875 49.726562 C 201.152344 50.464844 202.101562 51.125 203.519531 51.707031 C 204.9375 52.292969 207.015625 52.863281 209.75 53.421875 C 213.546875 54.183594 216.546875 55.148438 218.75 56.316406 C 220.953125 57.484375 222.535156 58.84375 223.496094 60.390625 C 224.457031 61.941406 224.9375 63.730469 224.9375 65.761719 C 224.9375 68.097656 224.316406 70.207031 223.078125 72.085938 C 221.835938 73.964844 220.011719 75.464844 217.609375 76.578125 C 215.203125 77.699219 212.203125 78.253906 208.609375 78.253906 Z M 208.609375 78.253906 "/>
<path style=" stroke:none;fill-rule:nonzero;fill:rgb(100%,100%,100%);fill-opacity:1;" d="M 238.457031 77.953125 C 237.34375 77.953125 236.445312 77.609375 235.761719 76.921875 C 235.078125 76.238281 234.738281 75.335938 234.738281 74.21875 L 234.738281 22.1875 C 234.738281 21.070312 235.078125 20.167969 235.761719 19.480469 C 236.445312 18.796875 237.34375 18.453125 238.457031 18.453125 C 239.574219 18.453125 240.46875 18.796875 241.15625 19.480469 C 241.839844 20.167969 242.179688 21.070312 242.179688 22.1875 L 242.179688 74.21875 C 242.179688 75.335938 241.835938 76.234375 241.15625 76.921875 C 240.472656 77.609375 239.570312 77.949219 238.457031 77.949219 Z M 242.027344 62.714844 L 237.320312 57.535156 L 260.632812 36.660156 C 261.394531 35.949219 262.242188 35.621094 263.179688 35.671875 C 264.117188 35.722656 264.914062 36.128906 265.570312 36.890625 C 266.28125 37.652344 266.609375 38.492188 266.558594 39.40625 C 266.507812 40.320312 266.101562 41.132812 265.34375 41.84375 Z M 265.570312 77.570312 C 264.761719 78.230469 263.863281 78.523438 262.875 78.445312 C 261.886719 78.371094 261.066406 77.925781 260.40625 77.113281 L 244.988281 57.992188 L 250.304688 52.964844 L 266.101562 72.46875 C 266.761719 73.28125 267.050781 74.15625 266.976562 75.097656 C 266.898438 76.035156 266.429688 76.859375 265.570312 77.570312 Z M 265.570312 77.570312 "/>
</g>
</svg>
